{"title":"Dumb.and.Dumber.To.2014.WEBRip.x264.DD5.1-CiAHD","uid":11679791,"size":1182219805,"categoryP":"video","categoryS":"movies","magnet":"?xt=urn:btih:6a8cead620d4f60b0f023c3412faacfa78cbab7f&amp;dn=Dumb.and.Dumber.To.2014.WEBRip.x264.DD5.1-CiAHD&amp;tr=udp%3A%2F%2Ftracker.openbittorrent.com%3A80&amp;tr=udp%3A%2F%2Fopen.demonii.com%3A1337&amp;tr=udp%3A%2F%2Ftracker.coppersurfer.tk%3A6969&amp;tr=udp%3A%2F%2Fexodus.desync.com%3A6969","seeders":0,"leechers":0,"uploader":"TvTeam","files":4,"time":1423031033,"description":" &lt;a href=&quot;https://www.torrenting.com&quot; rel=&quot;nofollow&quot; target=&quot;_NEW&quot;&gt;https://www.torrenting.com&lt;/a&gt;\n\nSign up is OPEN - for the time being. Come and have fun.\n\n---------------------------------------------------------------------\n\n.CiA Group Official Paste:\nGeneral\nUnique ID                                : 240042322003204167653376314374626508458 (0xB4967836D42D895C8FE9719FC7F07EAA)\nComplete name                            : D:UsersdwnDumb.and.Dumber.To.2014.WEBRip.x264.DD5.1-CiAHDDumb.and.Dumber.To.2014.WEBRip.x264.DD5.1-CiAHD.mkv\nFormat                                   : Matroska\nFormat version                           : Version 4 / Version 2\nFile size                                : 1.10 GiB\nDuration                                 : 1h 49mn\nOverall bit rate                         : 1 441 Kbps\nEncoded date                             : UTC 2015-02-03 19:42:07\nWriting application                      : mkvmerge v7.5.0 ('Glass Culture') 64bit built on Jan  4 2015 16:48:44\nWriting library                          : libebml v1.3.1 + libmatroska v1.4.2\nDURATION                                 : 01:48:01.651000000\nNUMBER_OF_FRAMES                         : 2369\nNUMBER_OF_BYTES                          : 66868\n_STATISTICS_WRITING_APP                  : mkvmerge v7.5.0 ('Glass Culture') 64bit built on Jan  4 2015 16:48:44\n_STATISTICS_WRITING_DATE_UTC             : 2015-02-03 19:42:07\n_STATISTICS_TAGS                         : BPS DURATION NUMBER_OF_FRAMES NUMBER_OF_BYTES\n\nVideo\nID                                       : 1\nFormat                                   : AVC\nFormat/Info                              : Advanced Video Codec\nFormat profile                           : &lt;a class=&quot;__cf_email__&quot; href=&quot;/cdn-cgi/l/email-protection&quot; data-cfemail=&quot;0149686669414d352f30&quot;&gt;[email&amp;#160;protected]&lt;/a&gt;&lt;script cf-hash='f9e31' type=&quot;text/javascript&quot;&gt;\n/* &lt;![CDATA[ */!function(){try{var t=&quot;currentScript&quot;in document?document.currentScript:function(){for(var t=document.getElementsByTagName(&quot;script&quot;),e=t.length;e--;)if(t[e].getAttribute(&quot;cf-hash&quot;))return t[e]}();if(t&amp;&amp;t.previousSibling){var e,r,n,i,c=t.previousSibling,a=c.getAttribute(&quot;data-cfemail&quot;);if(a){for(e=&quot;&quot;,r=parseInt(a.substr(0,2),16),n=2;a.length-n;n+=2)i=parseInt(a.substr(n,2),16)^r,e+=String.fromCharCode(i);e=document.createTextNode(e),c.parentNode.replaceChild(e,c)}}}catch(u){}}();/* ]]&gt; */&lt;/script&gt;\nFormat settings, CABAC                   : Yes\nFormat settings, ReFrames                : 16 frames\nCodec ID                                 : V_MPEG4/ISO/AVC\nDuration                                 : 1h 49mn\nBit rate                                 : 1 028 Kbps\nWidth                                    : 720 pixels\nHeight                                   : 390 pixels\nDisplay aspect ratio                     : 1.85:1\nFrame rate mode                          : Constant\nFrame rate                               : 23.976 fps\nColor space                              : YUV\nChroma subsampling                       : 4:2:0\nBit depth                                : 8 bits\nScan type                                : Progressive\nBits/(Pixel*Frame)                       : 0.153\nStream size                              : 804 MiB (71%)\nWriting library                          : x264 core 142 r2479 dd79a61\nEncoding settings                        : cabac=1 / ref=16 / deblock=1:0:0 / analyse=0x3:0x133 / me=tesa / subme=11 / psy=1 / psy_rd=1.00:0.00 / mixed_ref=1 / me_range=24 / chroma_me=1 / trellis=2 / 8x8dct=1 / cqm=0 / deadzone=21,11 / fast_pskip=0 / chroma_qp_offset=-2 / threads=12 / lookahead_threads=3 / sliced_threads=0 / nr=0 / decimate=1 / interlaced=0 / bluray_compat=0 / constrained_intra=0 / bframes=16 / b_pyramid=2 / b_adapt=2 / b_bias=0 / direct=3 / weightb=1 / open_gop=0 / weightp=2 / keyint=240 / keyint_min=24 / scenecut=40 / intra_refresh=0 / rc_lookahead=60 / rc=crf / mbtree=1 / crf=18.0 / qcomp=0.60 / qpmin=0 / qpmax=69 / qpstep=4 / vbv_maxrate=62500 / vbv_bufsize=78125 / crf_max=0.0 / nal_hrd=none / filler=0 / ip_ratio=1.40 / aq=1:1.00\nDefault                                  : Yes\nForced                                   : No\nColor primaries                          : BT.709\nTransfer characteristics                 : BT.709\nMatrix coefficients                      : BT.709\nColor range                              : Limited\nDURATION                                 : 01:49:23.975000000\nNUMBER_OF_FRAMES                         : 157378\nNUMBER_OF_BYTES                          : 865435650\n_STATISTICS_WRITING_APP                  : mkvmerge v7.5.0 ('Glass Culture') 64bit built on Jan  4 2015 16:48:44\n_STATISTICS_WRITING_DATE_UTC             : 2015-02-03 19:42:07\n_STATISTICS_TAGS                         : BPS DURATION NUMBER_OF_FRAMES NUMBER_OF_BYTES\n\nAudio\nID                                       : 2\nFormat                                   : AC-3\nFormat/Info                              : Audio Coding 3\nMode extension                           : CM (complete main)\nFormat settings, Endianness              : Big\nCodec ID                                 : A_AC3\nDuration                                 : 1h 49mn\nBit rate mode                            : Constant\nBit rate                                 : 384 Kbps\nChannel(s)                               : 6 channels\nChannel positions                        : Front: L C R, Side: L R, LFE\nSampling rate                            : 48.0 KHz\nBit depth                                : 16 bits\nCompression mode                         : Lossy\nDelay relative to video                  : -83ms\nStream size                              : 300 MiB (27%)\nLanguage                                 : English\nDefault                                  : Yes\nForced                                   : No\n\nText\nID                                       : 3\nFormat                                   : UTF-8\nCodec ID                                 : S_TEXT/UTF8\nCodec ID/Info                            : UTF-8 Plain Text\nLanguage                                 : English\nDefault                                  : No\nForced                                   : No\n\nMenu\n00:00:00.000                             : :1\n00:04:25.140                             : :2\n00:10:21.204                             : :3\n00:17:51.153                             : :4\n00:24:33.138                             : :5\n00:30:37.169                             : :6\n00:35:50.190                             : :7\n00:40:28.176                             : :8\n00:44:28.124                             : :9\n00:51:02.142                             : :10\n00:54:29.183                             : :11\n00:57:46.129                             : :12\n01:03:23.174                             : :13\n01:09:25.161                             : :14\n01:15:07.169                             : :15\n01:21:17.122                             : :16\n01:24:50.168                             : :17\n01:29:36.121                             : :18\n01:37:09.157                             : :19\n01:42:14.170                             : :20","torrent":{"xt":"urn:btih:6a8cead620d4f60b0f023c3412faacfa78cbab7f","amp;dn":"Dumb.and.Dumber.To.2014.WEBRip.x264.DD5.1-CiAHD","amp;tr":["udp%3A%2F%2Ftracker.openbittorrent.com%3A80","udp%3A%2F%2Fopen.demonii.com%3A1337","udp%3A%2F%2Ftracker.coppersurfer.tk%3A6969","udp%3A%2F%2Fexodus.desync.com%3A6969"],"infoHash":"6a8cead620d4f60b0f023c3412faacfa78cbab7f","infoHashBuffer":{"type":"Buffer","data":[106,140,234,214,32,212,246,11,15,2,60,52,18,250,172,250,120,203,171,127]},"announce":[],"urlList":[]}}